<?xml version="1.0" standalone="no"?>
<!DOCTYPE svg PUBLIC "-//W3C//DTD SVG 20010904//EN"
 "http://www.w3.org/TR/2001/REC-SVG-20010904/DTD/svg10.dtd">
<svg version="1.0" xmlns="http://www.w3.org/2000/svg"
 width="16.000000pt" height="16.000000pt" viewBox="0 0 16.000000 16.000000"
 preserveAspectRatio="xMidYMid meet">
<metadata>
Created by potrace 1.11, written by Peter Selinger 2001-2013
</metadata>
<g transform="translate(0.000000,16.000000) scale(0.005654,-0.005654)"
fill="#000000" stroke="none">
<path d="M0 1415 l0 -1415 1415 0 1415 0 0 1415 0 1415 -1415 0 -1415 0 0
-1415z m410 1263 c8 0 24 3 34 7 15 7 17 5 11 -6 -8 -12 -6 -12 8 0 13 10 20
11 31 2 11 -9 20 -9 35 -2 26 14 64 14 78 0 8 -8 17 -8 31 0 15 8 29 8 48 1
15 -6 33 -9 40 -6 32 12 21 -16 -16 -40 -22 -15 -40 -28 -40 -31 0 -4 86 44
107 60 7 5 22 10 35 12 13 3 35 7 51 11 16 4 33 1 42 -6 8 -6 19 -9 24 -6 5 4
12 2 16 -4 4 -6 11 -7 18 -3 6 3 22 8 36 10 14 1 41 6 60 9 l34 7 -34 -32 -34
-32 35 20 c19 11 51 22 70 25 19 2 46 8 60 12 l25 7 -29 -31 -28 -30 48 24
c27 13 54 22 62 19 7 -3 23 0 34 6 15 8 22 8 28 -1 6 -10 16 -9 44 1 27 10 39
10 48 1 8 -8 5 -16 -13 -33 -20 -17 -15 -16 24 6 27 15 55 24 63 21 8 -3 25 0
39 6 18 8 28 8 39 -1 11 -9 20 -10 36 -1 11 6 33 10 48 8 25 -3 27 -6 27 -53
0 -27 4 -56 8 -62 4 -7 4 -21 -1 -30 -11 -21 -10 -103 1 -120 5 -7 5 -18 2
-24 -11 -17 -13 -133 -3 -146 6 -7 6 -19 1 -30 -11 -21 -11 -33 0 -50 15 -23
-5 -41 -51 -47 -103 -14 -105 -13 -114 19 -5 17 -10 55 -12 85 -2 30 -5 55 -6
55 -1 0 -3 32 -5 70 -1 39 -5 89 -9 113 -8 41 -9 43 -36 37 -16 -4 -31 -2 -35
5 -5 8 -14 7 -30 -4 -15 -10 -26 -12 -30 -6 -7 11 -143 6 -185 -6 -25 -7 -25
-7 5 26 l30 33 -47 -27 c-26 -15 -52 -25 -57 -22 -5 4 -21 1 -36 -6 -21 -9
-28 -9 -35 2 -4 7 -15 10 -24 7 -9 -4 -30 -4 -47 0 l-32 6 24 20 c17 13 11 12
-21 -6 -25 -14 -57 -25 -70 -25 -14 0 -38 -3 -55 -7 l-30 -6 35 32 35 32 -45
-26 c-25 -14 -57 -25 -70 -25 -14 0 -38 -4 -54 -8 -16 -4 -27 -3 -23 2 6 11
-87 11 -126 0 -18 -5 -32 -4 -42 4 -12 10 -18 10 -30 0 -17 -14 -20 -40 -5
-40 6 0 10 -7 10 -15 0 -8 9 -19 20 -25 11 -6 20 -18 20 -26 0 -23 32 -74 47
-74 7 0 13 -9 13 -20 0 -11 9 -29 20 -40 11 -11 20 -24 20 -29 0 -6 14 -31 31
-56 17 -25 29 -51 26 -59 -3 -8 3 -12 17 -12 14 1 22 -6 24 -21 2 -13 7 -23
12 -23 5 0 18 -20 29 -43 11 -24 27 -50 36 -57 8 -7 15 -19 15 -26 0 -8 6 -14
14 -14 7 0 16 -13 20 -30 3 -19 12 -30 22 -30 12 0 15 -7 12 -25 -4 -17 -1
-25 8 -25 13 0 18 -14 17 -46 0 -6 8 -9 18 -7 14 4 19 0 19 -15 0 -12 9 -26
20 -32 11 -6 20 -17 20 -25 0 -21 34 -75 48 -75 6 0 12 -9 12 -20 0 -11 7 -23
15 -26 8 -4 15 -12 15 -19 0 -7 8 -27 17 -43 17 -30 17 -31 -7 -52 -22 -19
-23 -20 -3 -11 19 10 21 8 19 -13 -1 -13 -19 -46 -39 -74 -20 -27 -37 -56 -37
-64 0 -8 -9 -23 -20 -33 -11 -10 -20 -27 -20 -39 0 -11 -13 -34 -29 -51 -34
-35 -73 -103 -66 -114 2 -5 -11 -26 -30 -49 -19 -22 -35 -49 -35 -59 0 -11
-14 -32 -30 -48 -17 -16 -30 -35 -30 -43 0 -9 -11 -30 -25 -48 -14 -18 -25
-39 -25 -46 0 -8 -13 -29 -30 -48 -16 -19 -29 -42 -30 -51 0 -8 -11 -26 -25
-39 -14 -13 -25 -31 -25 -40 0 -9 -9 -25 -20 -35 -12 -10 -18 -25 -16 -32 3
-7 -10 -31 -29 -52 -19 -21 -35 -46 -35 -56 0 -9 -9 -28 -20 -42 -11 -14 -18
-29 -15 -33 7 -11 97 -9 112 2 15 12 36 1 27 -14 -5 -7 -2 -8 7 -2 18 11 114
16 238 11 58 -2 59 -3 43 -21 -16 -18 -16 -18 8 -5 42 23 93 38 104 32 6 -4
46 -8 91 -9 139 -4 129 -2 114 -21 -11 -13 -4 -12 25 6 25 14 48 20 63 16 13
-3 33 -1 44 5 12 7 25 8 32 2 19 -14 144 -13 156 2 6 7 10 39 9 72 -2 84 10
273 18 285 3 6 13 8 21 5 9 -4 30 -1 48 5 25 10 39 9 64 -2 17 -8 31 -21 30
-29 -1 -8 0 -17 1 -20 6 -15 4 -173 -3 -177 -4 -2 -5 -9 -1 -14 9 -16 5 -302
-5 -312 -5 -5 -27 -5 -54 1 -28 5 -51 6 -61 0 -11 -6 -22 -6 -30 1 -7 6 -16 7
-20 3 -9 -8 -266 -10 -261 -1 2 3 -9 3 -26 1 -16 -2 -31 -8 -34 -12 -3 -4 -20
-4 -39 0 -18 4 -79 6 -135 5 -101 -2 -102 -2 -84 18 17 19 17 19 -2 9 -67 -36
-89 -42 -124 -33 -32 8 -139 9 -166 1 -5 -1 -21 -2 -35 -1 l-25 1 25 21 c18
15 19 18 5 11 -11 -5 -36 -17 -56 -26 -29 -14 -45 -15 -75 -7 -22 5 -76 8
-121 7 -45 -1 -80 1 -77 5 2 4 -9 4 -26 -1 -16 -5 -30 -8 -31 -7 -1 1 -2 16
-3 32 -1 17 -5 36 -9 42 -4 7 -3 21 3 32 7 14 7 22 0 26 -6 4 -8 16 -4 27 3
11 8 32 9 47 6 46 11 60 28 79 9 10 17 22 17 26 0 4 11 22 25 40 14 18 25 42
25 53 0 11 11 30 24 42 14 13 22 28 20 35 -3 7 7 23 21 36 14 13 25 29 25 36
0 6 7 17 15 24 8 7 15 20 15 29 0 10 11 28 25 41 14 13 25 29 25 37 0 7 5 13
10 13 6 0 10 7 10 15 0 20 19 53 49 87 13 14 21 31 17 36 -3 5 6 20 19 32 14
13 25 31 25 40 0 9 9 25 20 35 11 10 20 26 20 36 0 10 13 33 28 51 39 46 64
87 58 96 -3 5 15 33 40 63 24 30 42 59 40 66 -3 6 4 23 16 38 22 29 18 75 -7
75 -8 0 -15 7 -15 17 0 9 -11 31 -25 49 -14 18 -25 36 -25 39 0 4 -9 20 -21
36 -11 16 -18 33 -15 38 3 5 -3 7 -14 4 -17 -4 -20 0 -20 25 0 22 -4 29 -17
28 -12 -1 -19 7 -21 22 -2 13 -10 26 -18 29 -8 3 -12 9 -9 13 3 5 -1 15 -9 22
-7 8 -16 23 -20 35 -4 11 -15 28 -26 38 -11 10 -20 23 -20 29 0 6 -13 25 -28
42 -16 17 -28 40 -27 51 1 15 -3 19 -17 15 -14 -3 -18 1 -18 21 0 14 -5 29
-10 32 -6 4 -8 10 -5 15 3 4 -3 7 -13 6 -11 0 -18 7 -20 22 -2 12 -8 22 -13
22 -5 0 -9 7 -9 15 0 9 -7 18 -15 21 -8 4 -15 15 -15 25 0 10 -7 19 -15 19 -8
0 -15 6 -15 14 0 17 -17 51 -49 95 l-25 34 24 16 c51 34 64 52 19 27 -25 -14
-51 -26 -57 -26 -18 0 -14 41 6 57 15 13 15 13 -5 4 -33 -17 -35 -15 -31 39 3
28 2 53 -2 55 -3 2 -5 23 -4 47 2 24 3 49 3 56 1 7 15 12 34 12 17 0 39 5 47
10 8 6 29 8 45 5 17 -3 37 -6 45 -7z m1275 -728 c38 -10 75 -27 83 -37 7 -10
20 -17 28 -15 31 6 184 -134 184 -168 0 -6 4 -10 9 -10 6 0 20 -18 32 -40 23
-40 57 -52 51 -18 -1 9 16 36 38 59 22 23 40 45 40 49 0 18 93 96 163 136 96
55 102 57 203 58 93 0 114 -10 114 -58 0 -27 -4 -32 -26 -34 -14 -1 -31 1 -37
5 -13 8 -113 7 -127 -2 -6 -4 -8 -10 -5 -15 3 -5 1 -18 -4 -28 -6 -11 -7 -23
-3 -26 10 -11 10 -118 0 -139 -5 -9 -6 -23 -1 -30 11 -17 12 -50 2 -69 -5 -9
-6 -19 -1 -22 9 -5 8 -133 -1 -143 -4 -3 -2 -12 4 -19 7 -9 7 -19 -1 -34 -6
-11 -8 -26 -3 -33 11 -17 12 -108 2 -135 -5 -13 -6 -29 -2 -35 4 -6 7 -43 7
-83 1 -44 6 -77 14 -87 22 -26 101 -67 143 -73 38 -6 39 -7 39 -50 0 -38 -3
-44 -21 -44 -29 0 -119 33 -119 43 0 4 -4 6 -8 3 -5 -3 -21 6 -37 20 -15 13
-35 24 -43 24 -18 0 -52 29 -52 44 0 6 -17 30 -37 53 -21 23 -44 49 -51 58
-21 24 -110 178 -114 195 -2 8 -5 17 -8 20 -3 3 -16 28 -29 55 -13 28 -30 62
-37 77 -8 14 -14 37 -14 50 0 22 -1 22 -25 -7 -13 -16 -24 -35 -25 -40 0 -22
-109 -231 -129 -249 -12 -11 -21 -26 -21 -34 0 -19 -66 -108 -85 -116 -8 -3
-15 -11 -15 -18 0 -36 -167 -143 -257 -164 -28 -6 -54 -9 -57 -6 -9 8 -7 72 2
70 4 -1 27 4 52 12 25 7 53 14 63 15 10 1 30 11 45 22 20 15 27 29 27 56 0 19
3 39 7 43 4 4 3 13 -3 20 -7 9 -7 19 0 33 6 11 7 22 2 25 -7 5 -9 254 -1 281
1 6 1 12 0 15 -7 16 -6 238 1 252 5 10 5 19 0 22 -5 3 -9 49 -9 101 1 52 -1
97 -3 99 -2 3 -36 1 -74 -4 -49 -6 -72 -5 -77 3 -5 8 -11 7 -22 -2 -14 -12
-16 -9 -16 22 0 28 5 37 22 43 15 4 25 2 32 -8 8 -13 15 -12 50 8 49 28 52 29
141 4z"/>
<path d="M630 2659 c-17 -13 -18 -17 -5 -10 33 17 51 31 40 31 -5 0 -21 -10
-35 -21z"/>
<path d="M1644 434 c-18 -14 -18 -15 4 -4 12 6 22 13 22 15 0 8 -5 6 -26 -11z"/>
<path d="M1574 394 c-18 -14 -18 -15 4 -4 12 6 22 13 22 15 0 8 -5 6 -26 -11z"/>
<path d="M1719 1868 c-1 -3 -8 -164 -9 -183 0 -5 2 -48 3 -95 2 -47 0 -92 -4
-101 -5 -9 -3 -21 2 -26 8 -8 8 -17 0 -31 -6 -10 -7 -22 -3 -26 10 -10 11
-258 1 -277 -5 -9 -4 -20 2 -26 8 -8 8 -17 0 -31 -6 -10 -8 -22 -5 -25 8 -8
104 109 104 127 0 8 4 18 10 21 5 3 23 35 40 70 17 35 35 67 40 70 6 3 10 14
10 24 0 10 7 24 15 31 8 7 13 16 10 20 -3 4 6 24 20 44 13 20 22 36 19 36 -2
0 2 13 11 30 15 29 14 32 -27 97 -54 85 -61 94 -127 157 -30 28 -65 61 -78 74
-22 20 -32 26 -34 20z"/>
<path d="M2294 1807 c-65 -54 -166 -162 -158 -170 3 -3 -5 -21 -20 -39 -23
-31 -24 -37 -13 -70 7 -19 17 -42 23 -49 6 -8 36 -63 66 -124 66 -131 75 -147
111 -202 15 -24 27 -47 27 -52 0 -5 7 -12 16 -15 12 -4 14 -1 9 14 -3 10 -1
29 5 41 8 15 9 24 2 28 -9 5 -10 107 -2 146 1 6 1 12 0 15 -7 15 -5 188 2 203
5 10 5 17 0 17 -8 0 -10 220 -2 245 2 6 -1 20 -6 32 -9 21 -10 20 -60 -20z"/>
</g>
</svg>
